<svg xmlns="http://www.w3.org/2000/svg" xmlns:xlink="http://www.w3.org/1999/xlink" width="45.255" height="45.255" viewBox="0 0 45.255 45.255"><defs><filter id="a" x="0" y="0" width="45.255" height="45.255" filterUnits="userSpaceOnUse"><feOffset dy="3" input="SourceAlpha"/><feGaussianBlur stdDeviation="2.5" result="b"/><feFlood flood-opacity="0.188"/><feComposite operator="in" in2="b"/><feComposite in="SourceGraphic"/></filter></defs><g transform="matrix(1, 0, 0, 1, 0, 0)" filter="url(#a)"><path d="M15.127,8A15.127,15.127,0,1,0,30.255,23.127,15.127,15.127,0,0,0,15.127,8Zm0,26.351A11.224,11.224,0,1,1,26.351,23.127,11.217,11.217,0,0,1,15.127,34.351Zm0-19.031a7.808,7.808,0,1,0,7.808,7.808A7.808,7.808,0,0,0,15.127,15.32Zm0,11.712a3.9,3.9,0,1,1,3.9-3.9A3.908,3.908,0,0,1,15.127,27.031Z" transform="translate(7.5 -3.5)" fill="#fff"/></g></svg>