<svg xmlns="http://www.w3.org/2000/svg" xmlns:xlink="http://www.w3.org/1999/xlink" width="58.221" height="45.255" viewBox="0 0 58.221 45.255"><defs><filter id="a" x="0" y="0" width="58.221" height="45.255" filterUnits="userSpaceOnUse"><feOffset dy="3" input="SourceAlpha"/><feGaussianBlur stdDeviation="2.5" result="b"/><feFlood flood-opacity="0.188"/><feComposite operator="in" in2="b"/><feComposite in="SourceGraphic"/></filter></defs><g transform="matrix(1, 0, 0, 1, 0, 0)" filter="url(#a)"><path d="M7.023,36.322H3.782a1.617,1.617,0,0,0-1.621,1.621v7.023H.54a.542.542,0,0,0-.54.54v3.242a.542.542,0,0,0,.54.54H2.161v7.023a1.617,1.617,0,0,0,1.621,1.621H7.023a1.617,1.617,0,0,0,1.621-1.621V37.943A1.617,1.617,0,0,0,7.023,36.322Zm35.658,8.644H41.06V37.943a1.617,1.617,0,0,0-1.621-1.621H36.2a1.617,1.617,0,0,0-1.621,1.621V56.312A1.617,1.617,0,0,0,36.2,57.933h3.242a1.617,1.617,0,0,0,1.621-1.621V49.289h1.621a.542.542,0,0,0,.54-.54V45.507A.542.542,0,0,0,42.681,44.966ZM30.8,32H27.554a1.617,1.617,0,0,0-1.621,1.621V44.966H17.289V33.621A1.617,1.617,0,0,0,15.668,32H12.426a1.617,1.617,0,0,0-1.621,1.621V60.634a1.617,1.617,0,0,0,1.621,1.621h3.242a1.617,1.617,0,0,0,1.621-1.621V49.289h8.644V60.634a1.617,1.617,0,0,0,1.621,1.621H30.8a1.617,1.617,0,0,0,1.621-1.621V33.621A1.617,1.617,0,0,0,30.8,32Z" transform="translate(7.5 -27.5)" fill="#fff"/></g></svg>