<svg xmlns="http://www.w3.org/2000/svg" viewBox="0 0 118 118"><title>Asset 4</title><path d="M106.13,23.5H11.87a59,59,0,0,1,94.26,0ZM59,118a58.93,58.93,0,0,0,47.13-23.5H11.87A58.93,58.93,0,0,0,59,118Zm51.11-88.5H7.89a59.09,59.09,0,0,0,0,59H18V86.25a3,3,0,0,1,6,0V88.5h6.17V83.25a3,3,0,0,1,6,0V88.5h6.16V70.25a3,3,0,0,1,6,0V88.5H54.5V61.25a3,3,0,0,1,6,0V88.5h6.17V79.25a3,3,0,0,1,6,0V88.5h6.16V72.25a3,3,0,0,1,6,0V88.5H91V78.25a3,3,0,0,1,6,0V88.5h13.11a59.09,59.09,0,0,0,0-59Z" style="fill:#4834d4"/></svg>