<svg xmlns="http://www.w3.org/2000/svg" xmlns:xlink="http://www.w3.org/1999/xlink" width="44.024" height="44.03" viewBox="0 0 44.024 44.03"><defs><filter id="a" x="0" y="0" width="44.024" height="44.03" filterUnits="userSpaceOnUse"><feOffset dy="3" input="SourceAlpha"/><feGaussianBlur stdDeviation="2.5" result="b"/><feFlood flood-opacity="0.188"/><feComposite operator="in" in2="b"/><feComposite in="SourceGraphic"/></filter></defs><g transform="matrix(1, 0, 0, 1, 0, 0)" filter="url(#a)"><path d="M26.262,2.814a9.606,9.606,0,0,0-13.577,0A10.86,10.86,0,0,0,9.1,10.889v4.866l-2.3,2.3a1.9,1.9,0,0,1-2.085.34,3.42,3.42,0,0,0-3.685,5.6,3.374,3.374,0,0,0,3.181.854,3.368,3.368,0,0,0,.856,3.18,3.421,3.421,0,0,0,5.6-3.685,1.9,1.9,0,0,1,.34-2.083l2.3-2.3h4.869a10.65,10.65,0,0,0,3.509-.567,6.071,6.071,0,0,1,7.358-9.517,9.535,9.535,0,0,0-2.785-7.061Z" transform="translate(7.47 4.5)" fill="#fff"/></g></svg>