<svg xmlns="http://www.w3.org/2000/svg" viewBox="0 0 118 118"><title>Fat</title><path d="M106.13,23.5H11.87a59,59,0,0,1,94.26,0Z" style="fill:#4834d4"/><path d="M11.87,94.5h94.26a59,59,0,0,1-94.26,0Z" style="fill:#4834d4"/><path d="M118,59a58.75,58.75,0,0,1-7.89,29.5H97V78.25a3,3,0,0,0-6,0V88.5H84.83V72.25a3,3,0,0,0-6,0V88.5H72.67V79.25a3,3,0,0,0-6,0V88.5H60.5V61.25a3,3,0,0,0-6,0V88.5H48.33V70.25a3,3,0,0,0-6,0V88.5H36.17V83.25a3,3,0,0,0-6,0V88.5H24V86.25a3,3,0,0,0-6,0V88.5H7.89a59.09,59.09,0,0,1,0-59H110.11A58.75,58.75,0,0,1,118,59Z" style="fill:#4834d4"/></svg>