<svg xmlns="http://www.w3.org/2000/svg" xmlns:xlink="http://www.w3.org/1999/xlink" width="49.577" height="45.255" viewBox="0 0 49.577 45.255"><defs><filter id="a" x="0" y="0" width="49.577" height="45.255" filterUnits="userSpaceOnUse"><feOffset dy="3" input="SourceAlpha"/><feGaussianBlur stdDeviation="2.5" result="b"/><feFlood flood-opacity="0.188"/><feComposite operator="in" in2="b"/><feComposite in="SourceGraphic"/></filter></defs><g transform="matrix(1, 0, 0, 1, 0, 0)" filter="url(#a)"><path d="M31.335,47.127H3.242a3.242,3.242,0,0,0,0,6.483H31.335a3.242,3.242,0,0,0,0-6.483Zm1.081,8.644H2.161a1.081,1.081,0,0,0-1.081,1.081v1.081A4.322,4.322,0,0,0,5.4,62.255H29.174A4.322,4.322,0,0,0,33.5,57.933V56.852A1.081,1.081,0,0,0,32.416,55.772ZM3.96,44.966H30.617c2.335,0,3.689-2.965,2.352-5.124-2.713-4.384-8.687-7.835-15.68-7.842S4.322,35.458,1.609,39.841C.27,42,1.626,44.966,3.96,44.966ZM25.933,37.4a1.081,1.081,0,1,1-1.081,1.081A1.081,1.081,0,0,1,25.933,37.4Zm-8.644-2.161a1.081,1.081,0,1,1-1.081,1.081A1.081,1.081,0,0,1,17.289,35.242ZM8.644,37.4a1.081,1.081,0,1,1-1.081,1.081A1.081,1.081,0,0,1,8.644,37.4Z" transform="translate(7.5 -27.5)" fill="#fff"/></g></svg>