<svg xmlns="http://www.w3.org/2000/svg" xmlns:xlink="http://www.w3.org/1999/xlink" width="53.906" height="45.255" viewBox="0 0 53.906 45.255"><defs><filter id="a" x="0" y="0" width="53.906" height="45.255" filterUnits="userSpaceOnUse"><feOffset dy="3" input="SourceAlpha"/><feGaussianBlur stdDeviation="2.5" result="b"/><feFlood flood-opacity="0.161"/><feComposite operator="in" in2="b"/><feComposite in="SourceGraphic"/></filter></defs><g transform="matrix(1, 0, 0, 1, 0, 0)" filter="url(#a)"><path d="M18.922,39.9,6.47,50.155V61.224A1.081,1.081,0,0,0,7.55,62.3l7.569-.02A1.081,1.081,0,0,0,16.194,61.2V54.74a1.081,1.081,0,0,1,1.081-1.081H21.6a1.081,1.081,0,0,1,1.081,1.081V61.2a1.081,1.081,0,0,0,1.081,1.084l7.566.021a1.081,1.081,0,0,0,1.081-1.081V50.148L19.955,39.9a.823.823,0,0,0-1.033,0Zm19.67,6.971-5.646-4.654V32.86a.81.81,0,0,0-.81-.81H28.353a.81.81,0,0,0-.81.81v4.9L21.5,32.79a3.242,3.242,0,0,0-4.12,0L.279,46.87a.81.81,0,0,0-.108,1.141L1.893,50.1a.81.81,0,0,0,1.142.11L18.922,37.13a.823.823,0,0,1,1.033,0L35.843,50.215a.81.81,0,0,0,1.141-.108l1.722-2.094a.81.81,0,0,0-.115-1.143Z" transform="translate(7.52 -27.55)" fill="#fff"/></g></svg>