<svg xmlns="http://www.w3.org/2000/svg" viewBox="0 0 118 118"><title>Protein</title><path d="M41.62,81.6a8.11,8.11,0,1,1-8.11-8.11A8.1,8.1,0,0,1,41.62,81.6Z" style="fill:#4834d4"/><path d="M59,28.3a8.11,8.11,0,1,0,8.11,8.11A8.1,8.1,0,0,0,59,28.3Zm0,0a8.11,8.11,0,1,0,8.11,8.11A8.1,8.1,0,0,0,59,28.3ZM59,0a59,59,0,1,0,59,59A59,59,0,0,0,59,0ZM33.51,95.5A13.9,13.9,0,1,1,47.42,81.6,13.9,13.9,0,0,1,33.51,95.5ZM59,50.31a13.9,13.9,0,1,1,13.91-13.9A13.9,13.9,0,0,1,59,50.31ZM84.5,95.5A13.9,13.9,0,1,1,98.4,81.6,13.9,13.9,0,0,1,84.5,95.5ZM59,28.3a8.11,8.11,0,1,0,8.11,8.11A8.1,8.1,0,0,0,59,28.3Z" style="fill:#4834d4"/></svg>