<svg xmlns="http://www.w3.org/2000/svg" xmlns:xlink="http://www.w3.org/1999/xlink" width="38.421" height="43.825" viewBox="0 0 38.421 43.825"><defs><filter id="a" x="0" y="0" width="38.421" height="43.825" filterUnits="userSpaceOnUse"><feOffset dy="3" input="SourceAlpha"/><feGaussianBlur stdDeviation="2.5" result="b"/><feFlood flood-opacity="0.188"/><feComposite operator="in" in2="b"/><feComposite in="SourceGraphic"/></filter></defs><g transform="matrix(1, 0, 0, 1, 0, 0)" filter="url(#a)"><path d="M15.314,5.4a2.7,2.7,0,1,0-2.7-2.7A2.7,2.7,0,0,0,15.314,5.4ZM6.4,17.874l-.833,1.944H1.8a1.8,1.8,0,0,0,0,3.6H6.162a2.7,2.7,0,0,0,2.483-1.638l.495-1.155-.6-.355a5.361,5.361,0,0,1-2.139-2.4ZM21.62,12.611H19.141l-1.467-3A5.4,5.4,0,0,0,14.2,6.745l-4-1.19a5.382,5.382,0,0,0-4.551.965L3.408,8.232A1.8,1.8,0,0,0,5.6,11.091L7.835,9.379a1.753,1.753,0,0,1,1.423-.346l.828.246L7.977,14.2a3.613,3.613,0,0,0,1.481,4.522l4.784,2.825L12.7,26.485a1.8,1.8,0,1,0,3.438,1.076l1.781-5.69A2.714,2.714,0,0,0,16.7,18.809l-3.448-2.035,1.763-4.407L16.153,14.7a2.719,2.719,0,0,0,2.427,1.514h3.04a1.8,1.8,0,1,0,0-3.6Z" transform="translate(7.5 4.5)" fill="#4834d4"/></g></svg>