<svg xmlns="http://www.w3.org/2000/svg" xmlns:xlink="http://www.w3.org/1999/xlink" width="47.246" height="40.797" viewBox="0 0 47.246 40.797"><defs><filter id="a" x="0" y="0" width="47.246" height="40.797" filterUnits="userSpaceOnUse"><feOffset dy="3" input="SourceAlpha"/><feGaussianBlur stdDeviation="2.5" result="b"/><feFlood flood-opacity="0.188"/><feComposite operator="in" in2="b"/><feComposite in="SourceGraphic"/></filter></defs><g transform="matrix(1, 0, 0, 1, 0, 0)" filter="url(#a)"><path d="M9.674,8.064h1.612V1.615H9.674a3.225,3.225,0,1,0,0,6.449ZM0,20.962a3.224,3.224,0,0,0,3.225,3.225H4.837V17.737H3.225A3.224,3.224,0,0,0,0,20.962Zm17-6.449a10.3,10.3,0,0,0-5.277,1.612,7.7,7.7,0,0,1-5.277,1.612v6.449l2.9.8a20.59,20.59,0,0,0,4.046.758,17.527,17.527,0,0,0,4.916-.312c5.516-1.185,7.486-3.809,7.486-6.087,0-3.225-4.241-4.837-8.794-4.837ZM24.76.365A17.508,17.508,0,0,0,19.843.052,20.626,20.626,0,0,0,15.8.81l-2.9.8V8.064a7.7,7.7,0,0,1,5.277,1.612,10.3,10.3,0,0,0,5.277,1.612c4.553,0,8.794-1.612,8.794-4.837,0-2.278-1.97-4.9-7.486-6.087Z" transform="translate(7.5 4.5)" fill="#4834d4"/></g></svg>